<svg id="Layer_1" data-name="Layer 1" xmlns="http://www.w3.org/2000/svg" viewBox="0 0 573.3319 384.9499">
  <g>
    <path id="fullLogo" d="M479.7136,216.9553,388.8186,59.5207a6.998,6.998,0,0,0-12.1209,0l-90.895,157.4346Z" style="fill: #be1e28"/>
    <path id="fullLogo-2" data-name="fullLogo" d="M285.8536,105.009,227.25,3.4991a6.998,6.998,0,0,0-12.1209,0L91.8839,216.9553H221.2211Z" style="fill: #be1e28"/>
    <path id="fullLogo-3" data-name="fullLogo" d="M59.5915,272.8844.9481,374.4529a6.9979,6.9979,0,0,0,6.06,10.497h117.221L188.93,272.8844Z" style="fill: #be1e28"/>
    <path id="fullLogo-4" data-name="fullLogo" d="M570.6385,374.442,512.0044,272.8844H253.5119L188.8109,384.95H447.47l-.0045-.0076,117.1125-.0034A6.998,6.998,0,0,0,570.6385,374.442Z" style="fill: #be1e28"/>
    <path id="fullLogo-5" data-name="fullLogo" d="M552.7735,293.37v-13.09a.48.48,0,0,1,.5226-.5216h6.2709a4.3628,4.3628,0,0,1,4.3107,4.6534,4.4512,4.4512,0,0,1-2.9172,4.4141l2.8081,4.4352c.2182.3484.0651.6307-.3484.6307h-2.09a.6881.6881,0,0,1-.6317-.3483l-2.8291-4.4792h-2.2875V293.37a.48.48,0,0,1-.5226.5216h-1.7629A.48.48,0,0,1,552.7735,293.37Zm6.336-7.0451a1.9243,1.9243,0,1,0,0-3.8485h-3.5279v3.8485Z" style="fill: #be1e28"/>
    <path id="fullLogo-6" data-name="fullLogo" d="M557.6336,275.8591a11.0748,11.0748,0,1,1-11.0745,11.0745,11.0872,11.0872,0,0,1,11.0745-11.0745Zm0-2.9747a14.0495,14.0495,0,1,0,14.0492,14.0492,14.0493,14.0493,0,0,0-14.0492-14.0492Z" style="fill: #be1e28"/>
  </g>
</svg>
