<svg id="Layer_1" data-name="Layer 1" xmlns="http://www.w3.org/2000/svg" viewBox="0 0 864 115.0152">
  <g>
    <path id="fullLogo" d="M404.4322,64.8213,377.2753,17.7842a2.0919,2.0919,0,0,0-3.6233,0L346.4951,64.8213Z" style="fill: #be1e28"/>
    <path id="fullLogo-2" data-name="fullLogo" d="M346.51,31.3737,329.0015,1.0461a2.0919,2.0919,0,0,0-3.6233,0L288.5557,64.8213h38.6436Z" style="fill: #be1e28"/>
    <path id="fullLogo-3" data-name="fullLogo" d="M317.5514,81.532H278.9073l-17.5206,30.3452a2.0919,2.0919,0,0,0,1.8116,3.138H298.22Z" style="fill: #be1e28"/>
    <path id="fullLogo-4" data-name="fullLogo" d="M394.7971,115.0127l34.9893-.0011a2.0919,2.0919,0,0,0,1.8116-3.1378L414.08,81.532H336.8472l-19.3315,33.4832h77.2827Z" style="fill: #be1e28"/>
    <path id="fullLogo-5" data-name="fullLogo" d="M861.1878,53.33a1.5719,1.5719,0,0,0-1.5532-1.6766h-2.2594a.1728.1728,0,0,0-.1883.1879v4.7164a.1729.1729,0,0,0,.1883.188h.6352a.1729.1729,0,0,0,.1883-.188V55.0058h.8242l1.0193,1.6139a.248.248,0,0,0,.2276.1255h.7532c.1489,0,.2041-.1018.1255-.2274L860.1367,54.92A1.6039,1.6039,0,0,0,861.1878,53.33Zm-1.718.6893h-1.2711V52.6322H859.47a.6933.6933,0,1,1,0,1.3866Z" style="fill: #be1e28"/>
    <path id="fullLogo-6" data-name="fullLogo" d="M858.938,49.1763A5.0621,5.0621,0,1,0,864,54.2383,5.062,5.062,0,0,0,858.938,49.1763Zm0,9.0523a3.99,3.99,0,1,1,3.99-3.99A3.9947,3.9947,0,0,1,858.938,58.2286Z" style="fill: #be1e28"/>
    <path id="fullLogo-7" data-name="fullLogo" d="M34.0056,55.6442c-4.1488-4.2317-9.8544-6.4684-16.5057-6.4684H2.675A2.5328,2.5328,0,0,0,0,51.8508v41.13a2.5309,2.5309,0,0,0,2.675,2.675H17.5c6.6513,0,12.3569-2.2366,16.5057-6.4683,4.1386-4.2215,6.3235-10.02,6.3235-16.7716S38.1442,59.8656,34.0056,55.6442ZM26.2118,81.5178A12.7033,12.7033,0,0,1,17.5,84.9764H10.8831v-25.19H17.5c.4866,0,11.87.145,11.9461,12.6365C29.47,76.2747,28.3829,79.3329,26.2118,81.5178Z" style="fill: #be1e28"/>
    <path id="fullLogo-8" data-name="fullLogo" d="M85.8735,90.4161,69.9718,51.1226l-.0034-.01A3.0348,3.0348,0,0,0,67.1,49.1758H63.1375a3.0388,3.0388,0,0,0-2.8717,1.9433L44.2674,90.568a2.0661,2.0661,0,0,0,1.1563,2.7026L51.54,95.6868A2.0719,2.0719,0,0,0,54.2254,94.52l2.44-6.175H73.5028l2.4265,6.1405a2.07,2.07,0,0,0,2.72,1.1529l6.0991-2.5336A2.0717,2.0717,0,0,0,85.8735,90.4161Zm-25.18-12.205,4.425-11.2351,4.425,11.2351Z" style="fill: #be1e28"/>
    <path id="fullLogo-9" data-name="fullLogo" d="M713.5582,90.4161,697.6565,51.1226l-.0035-.01a3.0346,3.0346,0,0,0-2.8683-1.9364h-3.9625a3.0389,3.0389,0,0,0-2.8718,1.9433L671.9486,90.568a2.0706,2.0706,0,0,0,1.16,2.7026l6.1163,2.4162A2.0731,2.0731,0,0,0,681.91,94.52l2.44-6.175h16.8372l2.4264,6.1405a2.07,2.07,0,0,0,2.72,1.1529l6.0991-2.5336A2.0717,2.0717,0,0,0,713.5582,90.4161Zm-25.18-12.205,4.425-11.2351,4.425,11.2351Z" style="fill: #be1e28"/>
    <path id="fullLogo-10" data-name="fullLogo" d="M128.3816,49.1763h-5.5341a2.5326,2.5326,0,0,0-2.675,2.6752V75.6622L104.113,50.7489a3.167,3.167,0,0,0-2.8548-1.5726H95.5876a2.5327,2.5327,0,0,0-2.6752,2.6752V92.9807a2.5327,2.5327,0,0,0,2.6752,2.6752H101.19a2.5327,2.5327,0,0,0,2.6752-2.6752v-23.75l16.0593,24.8522a3.167,3.167,0,0,0,2.8548,1.5726h5.6024a2.5327,2.5327,0,0,0,2.6752-2.6752V51.8515A2.5327,2.5327,0,0,0,128.3816,49.1763Z" style="fill: #be1e28"/>
    <rect id="fullLogo-11" data-name="fullLogo" x="141.2806" y="49.1763" width="10.8843" height="46.4796" rx="2.6752" style="fill: #be1e28"/>
    <path id="fullLogo-12" data-name="fullLogo" d="M184.0087,67.5445c-.4021-.129-.7548-.242-1.0447-.3425l-.012-.0041c-.63-.21-1.3444-.4142-2.1005-.63-3.0532-.8726-7.2346-2.0678-7.2346-4.3312,0-2.6063,3.2035-2.9954,5.1132-2.9954a14.0472,14.0472,0,0,1,9.6953,3.701l.0256.0265a2.3872,2.3872,0,0,0,3.5454.4814l4.3884-2.8113c1.3282-.8855,2.0489-1.6678,1.0078-3.5618-2.4-4.2-8.9217-8.72-17.5693-8.72-5.0562,0-9.4246,1.1323-12.6336,3.2744a12.7237,12.7237,0,0,0-5.7554,11.0837c0,9.4479,9.6038,12.2733,14.219,13.631.5168.1521.963.2834,1.3089.3986.6263.213,1.3576.4252,2.1318.65,3.0069.8725,7.5507,2.1911,7.5507,4.45,0,1.2856,0,3.6787-5.8648,3.6787-4.7121,0-9.0766-2.82-11.2974-5.2981-1.42-1.5849-2.4195-1.4459-3.6507-.5221l-4.4829,3.193c-1.2939.8626-2.0422,1.77-.9427,3.6244,2.8172,4.7517,9.2362,9.9555,19.4171,9.9555,11.7285,0,18.7306-5.623,18.7306-15.0413C198.5539,72.21,188.3612,68.9406,184.0087,67.5445Z" style="fill: #be1e28"/>
    <path id="fullLogo-13" data-name="fullLogo" d="M242.6659,49.1763h-6.8108a2.071,2.071,0,0,0-2.071,2.071V67.0764H216.93V51.2473a2.071,2.071,0,0,0-2.071-2.071h-6.7424a2.071,2.071,0,0,0-2.0709,2.071V93.5849a2.071,2.071,0,0,0,2.0709,2.071h6.7424a2.071,2.071,0,0,0,2.071-2.071V77.7559h16.8539v15.829a2.071,2.071,0,0,0,2.071,2.071h6.8108a2.071,2.071,0,0,0,2.0709-2.071V51.2473A2.071,2.071,0,0,0,242.6659,49.1763Z" style="fill: #be1e28"/>
    <path id="fullLogo-14" data-name="fullLogo" d="M478.0771,49.1763h-27.99a2.071,2.071,0,0,0-2.0709,2.071V93.5849a2.071,2.071,0,0,0,2.0709,2.071h27.99a2.071,2.071,0,0,0,2.071-2.071V88.1983a2.6752,2.6752,0,0,0-2.6752-2.6752H458.9V77.4825h17.7421a2.071,2.071,0,0,0,2.071-2.071V69.4207a2.071,2.071,0,0,0-2.071-2.071H458.9V59.3092h19.1768a2.071,2.071,0,0,0,2.071-2.071V51.2473A2.071,2.071,0,0,0,478.0771,49.1763Z" style="fill: #be1e28"/>
    <path id="fullLogo-15" data-name="fullLogo" d="M525.4219,49.1763h-6.7426a2.071,2.071,0,0,0-2.0709,2.071V75.6622L500.5491,50.7489a3.1672,3.1672,0,0,0-2.8549-1.5726h-6.2748a2.071,2.071,0,0,0-2.071,2.071V93.5849a2.071,2.071,0,0,0,2.071,2.071H498.23a2.071,2.071,0,0,0,2.071-2.071V69.2311L516.36,94.0833a3.1673,3.1673,0,0,0,2.8549,1.5726h6.2066a2.071,2.071,0,0,0,2.0709-2.071V51.2473A2.071,2.071,0,0,0,525.4219,49.1763Z" style="fill: #be1e28"/>
    <path id="fullLogo-16" data-name="fullLogo" d="M571.0375,55.6442c-4.1454-4.2317-9.8544-6.4684-16.5023-6.4684H539.1029a2.0726,2.0726,0,0,0-2.071,2.071v42.338a2.0726,2.0726,0,0,0,2.071,2.0709h15.4323c6.6479,0,12.3569-2.2366,16.5023-6.4683,4.1386-4.2215,6.3269-10.02,6.3269-16.7716S575.1761,59.8656,571.0375,55.6442Zm-7.79,25.8736a12.7152,12.7152,0,0,1-8.712,3.4586h-6.6168v-25.19h6.6168c.4832,0,11.8668.145,11.9462,12.6365C566.5021,76.2747,565.4148,79.3329,563.2472,81.5178Z" style="fill: #be1e28"/>
    <path id="fullLogo-17" data-name="fullLogo" d="M618.9484,49.1763h-6.7425a2.071,2.071,0,0,0-2.071,2.071V77.95c0,2.277-.718,7.573-7.368,7.573s-7.3679-5.296-7.3679-7.573V51.2473a2.071,2.071,0,0,0-2.071-2.071h-6.7424a2.071,2.071,0,0,0-2.071,2.071V78.9067c0,10.1835,7.5057,17.2958,18.2523,17.2958s18.2525-7.1123,18.2525-17.2958V51.2473A2.071,2.071,0,0,0,618.9484,49.1763Z" style="fill: #be1e28"/>
    <path id="fullLogo-18" data-name="fullLogo" d="M756.6542,49.1763h-6.7424a2.071,2.071,0,0,0-2.071,2.071V75.6622L731.7814,50.7489a3.1672,3.1672,0,0,0-2.8549-1.5726h-6.2748a2.071,2.071,0,0,0-2.071,2.071V93.5849a2.071,2.071,0,0,0,2.071,2.071h6.8108a2.071,2.071,0,0,0,2.071-2.071V69.2311l16.0593,24.8522a3.167,3.167,0,0,0,2.8548,1.5726h6.2066a2.071,2.071,0,0,0,2.071-2.071V51.2473A2.071,2.071,0,0,0,756.6542,49.1763Z" style="fill: #be1e28"/>
    <path id="fullLogo-19" data-name="fullLogo" d="M791.0274,59.5141a12.253,12.253,0,0,1,9.0741,3.8309l.032.0335c1.5246,1.4093,2.2058,1.4093,3.6722.3724l4.5234-3.3584c1.7941-1.3991,1.9974-2.0232.5388-3.6966l-.0256-.0326c-4.2185-5.1805-10.5454-8.0336-17.8149-8.0336a23.3145,23.3145,0,0,0-16.8893,6.742,24.0859,24.0859,0,0,0-6.5555,17.0444,24.0859,24.0859,0,0,0,6.5555,17.0445,23.3148,23.3148,0,0,0,16.8893,6.7419c7.3465,0,13.7235-2.9036,17.956-8.1759l.03-.0391c1.2082-1.4745,1.1109-2.3016-.6526-3.5908l-4.5252-3.4976c-1.5936-1.2934-2.3341-1.2027-3.7379.3862a12.8324,12.8324,0,0,1-9.07,4.0328c-7.3953,0-12.56-5.3055-12.56-12.902S783.6321,59.5141,791.0274,59.5141Z" style="fill: #be1e28"/>
    <path id="fullLogo-20" data-name="fullLogo" d="M846.6276,59.3092a2.071,2.071,0,0,0,2.071-2.071V51.2473a2.071,2.071,0,0,0-2.071-2.071h-27.99a2.071,2.071,0,0,0-2.071,2.071V93.5849a2.071,2.071,0,0,0,2.071,2.071h27.99a2.071,2.071,0,0,0,2.071-2.071V87.5941a2.071,2.071,0,0,0-2.071-2.071H827.4507V77.4825h17.7421a2.071,2.071,0,0,0,2.071-2.071V69.4207a2.071,2.071,0,0,0-2.071-2.071H827.4507V59.3092Z" style="fill: #be1e28"/>
    <path id="fullLogo-21" data-name="fullLogo" d="M658.1364,79.1913c4.38-2.0295,8.6567-6.6927,8.6567-14.3588A15.57,15.57,0,0,0,662.1956,53.19a14.4847,14.4847,0,0,0-9.9649-4.0143H631.9488a2.0726,2.0726,0,0,0-2.071,2.071v42.338a2.0725,2.0725,0,0,0,2.071,2.0709h6.741a2.07,2.07,0,0,0,2.071-2.0709V80.4892h5.5675l9.4247,14.9455a2.0743,2.0743,0,0,0,2.6026.7835l5.7849-3.6277a2.0758,2.0758,0,0,0,.6455-2.8579ZM650.7948,69.81h-10.034V59.7862h10.034a5.0119,5.0119,0,1,1,0,10.0236Z" style="fill: #be1e28"/>
  </g>
</svg>
